<svg id="Layer_1" data-name="Layer 1" xmlns="http://www.w3.org/2000/svg" viewBox="0 0 1080 1920"><defs><style>.cls-1{fill:#ea4335;}.cls-2{fill:#4285f4;}.cls-3{fill:#fbbc04;}.cls-4{fill:#34a853;}</style></defs><path class="cls-1" d="M47,935.92,88,959.55l43.29-25a25,25,0,1,0-25-43.24L35.81,932A32,32,0,0,1,47,935.92Z"/><path class="cls-2" d="M131.25,992.55,43.57,941.94a25,25,0,1,0-25,43.24l87.67,50.61a25,25,0,1,0,25-43.24Z"/><path class="cls-3" d="M273.29,991.19l-40.92-23.63-43.28,25a25,25,0,1,0,25,43.24l70.48-40.68A32.13,32.13,0,0,1,273.29,991.19Z"/><path class="cls-4" d="M301.73,941.93l-87.68-50.61a25,25,0,1,0-25,43.24l87.67,50.62a25,25,0,0,0,25-43.25Z"/></svg>